<?xml version="1.0" standalone="no"?><!DOCTYPE svg PUBLIC "-//W3C//DTD SVG 1.1//EN" "http://www.w3.org/Graphics/SVG/1.1/DTD/svg11.dtd"><svg t="1611808092465" class="icon" viewBox="0 0 1024 1024" version="1.1" xmlns="http://www.w3.org/2000/svg" p-id="12458" xmlns:xlink="http://www.w3.org/1999/xlink" width="200" height="200"><defs><style type="text/css"></style></defs><path d="M533.294006 651.830021a22.332566 22.332566 0 1 1-44.601143 0 22.332566 22.332566 0 0 1 44.601143 0z" fill="#444444" p-id="12459"></path><path d="M601.187567 603.389469L504.242473 542.150884l24.252271-39.54592-19.133058-14.013845-44.601143 25.532075-26.811878-42.041537-42.041536 24.252272 22.972468 44.601142-44.601142 25.532075v164.518705l135.147221 73.972627 140.266434-84.147063V570.370546l-20.412862-11.454239-28.091681 44.601142z m-90.226127 101.360416a52.919864 52.919864 0 1 1 0-105.775737 52.919864 52.919864 0 0 1 0 105.775737z" fill="#444444" p-id="12460"></path><path d="M218.654382 456.724019l113.710517 71.988931 34.170746-14.653747-20.412861-34.426706 98.224898-56.119372 26.811877 42.041536 19.133059-8.894632v-59.958782h49.720355v-35.64252h-52.279962v-61.238584L352.58579 218.232687 218.654382 299.820143v156.839886z m136.746975-130.66791a52.919864 52.919864 0 1 1 0 105.775737 52.919864 52.919864 0 0 1 0-105.775737z" fill="#444444" p-id="12461"></path><path d="M377.733923 378.975972a22.332566 22.332566 0 1 1-44.601142 0 22.332566 22.332566 0 0 1 44.601142 0zM527.214941 320.296994h49.720355v113.454557h-51.000159v22.972468l51.000159 31.8671-21.692665 39.54592 36.986314 22.972468 22.972468-36.986313 44.857103 28.09168 145.129686-80.371642v-159.335503l-138.98663-82.867259L527.214941 297.644477v22.716507z m141.866188 4.479312a52.919864 52.919864 0 1 1 0 105.775737 52.919864 52.919864 0 0 1 0-105.775737z" fill="#444444" p-id="12462"></path><path d="M691.413695 377.696169a22.332566 22.332566 0 1 1-44.601142 0 22.332566 22.332566 0 0 1 44.601142 0z" fill="#444444" p-id="12463"></path><path d="M1001.957949 193.276524c-21.436704-123.565002-49.080454-148.905106-171.685603-170.4058C658.842703-7.140662 363.272147-7.588593 192.994327 22.038852 69.557306 43.475556 44.281192 71.247286 22.844488 193.916425-7.166898 365.474048-7.678819 660.212732 21.884635 830.746513c21.372714 123.628992 49.080454 148.905106 171.685604 170.4058 171.493633 30.011386 467.000199 30.523307 637.342008 0.959852 123.565002-21.500694 148.777126-49.144444 170.21383-171.941564 29.947396-171.621613 30.395327-466.488277 0.831872-636.958067z m-158.50363 290.259372L686.614433 569.858624v177.636689l-177.252747 105.839727-178.532551-105.839727V570.818477L180.388265 484.87969V269.360826l171.237673-98.544849 0.959852 47.54469v-47.54469l155.752053 92.465783 155.368112-89.522236 179.748364 105.839728v204.000635z" fill="#444444" p-id="12464"></path></svg>