<?xml version="1.0" standalone="no"?><!DOCTYPE svg PUBLIC "-//W3C//DTD SVG 1.1//EN" "http://www.w3.org/Graphics/SVG/1.1/DTD/svg11.dtd"><svg t="1611807973843" class="icon" viewBox="0 0 1365 1024" version="1.1" xmlns="http://www.w3.org/2000/svg" p-id="1191" xmlns:xlink="http://www.w3.org/1999/xlink" width="266.6015625" height="200"><defs><style type="text/css"></style></defs><path d="M407.9616 619.656533A102.4 102.4 0 1 0 475.818667 737.28h413.696a102.4 102.4 0 1 0 52.906666-111.274667l-203.1616-203.093333a102.4 102.4 0 1 0-179.882666 2.935467l-151.415467 193.877333z m58.094933 49.3568a102.331733 102.331733 0 0 0-4.3008-7.304533L610.986667 470.766933a102.126933 102.126933 0 0 0 78.301866-1.365333L888.832 669.013333H466.056533z m595.899734-293.888C1229.482667 375.125333 1365.333333 509.405867 1365.333333 675.157333c0 165.751467-135.850667 300.100267-303.377066 300.100267-11.741867 0-23.210667-0.682667-34.6112-1.979733H337.92a310.0672 310.0672 0 0 1-34.6112 1.979733C135.850667 975.2576 0 840.9088 0 675.157333s135.850667-300.032 303.377067-300.032C303.377067 167.936 473.224533 0 682.666667 0s379.2896 167.936 379.2896 375.125333z" fill="#5dc1cf" p-id="1192"></path></svg>