<?xml version="1.0" standalone="no"?><!DOCTYPE svg PUBLIC "-//W3C//DTD SVG 1.1//EN" "http://www.w3.org/Graphics/SVG/1.1/DTD/svg11.dtd"><svg t="1611808058029" class="icon" viewBox="0 0 1067 1024" version="1.1" xmlns="http://www.w3.org/2000/svg" p-id="9809" xmlns:xlink="http://www.w3.org/1999/xlink" width="208.3984375" height="200"><defs><style type="text/css"></style></defs><path d="M618.40451 952.576069l-15.961071 22.291427-90.003228-64.447178 15.961072-22.289873zM704.445439 882.101536l12.882909-27.767168 122.178648 56.685733-12.884464 27.767168z" fill="#4EB2A0" p-id="9810"></path><path d="M749.018969 631.012996l8.84758 12.450941-61.504199 43.709593-8.849134-12.450941z" fill="#52B3DF" p-id="9811"></path><path d="M364.951022 625.921053h-15.274274v-75.454598h15.274274z" fill="#4EB2A0" p-id="9812"></path><path d="M638.138312 311.434179l-7.074646 13.538631-66.874279-34.945921 7.074645-13.538631z" fill="#4079CB" p-id="9813"></path><path d="M673.365479 558.443883l10.208746 11.484451-56.38895 50.136286-10.2103-11.484451z" fill="#52B3DF" p-id="9814"></path><path d="M620.502198 402.388358l-4.875958 14.575044-71.554454-23.944715 4.874404-14.571936z" fill="#4079CB" p-id="9815"></path><path d="M471.653396 601.525724l-14.988366 3.399807-16.689824-73.585326 14.986812-3.398253zM269.285592 642.699446l-13.288463-2.800024 15.558627-73.833941 13.288462 2.801578z" fill="#4EB2A0" p-id="9816"></path><path d="M670.8265 238.229545l-8.285089 10.76036-59.782542-46.038804 8.286643-10.758806z" fill="#4079CB" p-id="9817"></path><path d="M760.445928 382.604834l21.028152 7.871767-26.449509 70.667209-21.028152-7.871767z" fill="#52B3DF" p-id="9818"></path><path d="M417.840717 372.720841l3.996484 22.094088-74.250371 13.425201-3.996483-22.094089z" fill="#4079CB" p-id="9819"></path><path d="M581.023718 752.795413l-16.779947 14.919997-50.134733-56.390504 16.779947-14.918443z" fill="#4EB2A0" p-id="9820"></path><path d="M550.394372 156.262791l-5.559649 17.830345-72.033037-22.46235 5.559649-17.830344z" fill="#4079CB" p-id="9821"></path><path d="M298.03945 789.0621l-18.214144 4.133221-21.40729-94.377294 18.214144-4.131668z" fill="#4EB2A0" p-id="9822"></path><path d="M860.53204 499.419616l17.830345 12.158819-42.508474 62.340167-17.831898-12.158819z" fill="#52B3DF" p-id="9823"></path><path d="M473.727776 247.342832l-2.058842 21.483428-75.109645-7.192737 2.057287-21.484983z" fill="#4079CB" p-id="9824"></path><path d="M430.229505 784.409895l-19.161988 9.929055-34.712844-66.99548 19.163541-9.929054z" fill="#4EB2A0" p-id="9825"></path><path d="M1009.06852 438.400215l23.268794 8.709288-26.44951 70.665656-23.268793-8.709288z" fill="#52B3DF" p-id="9826"></path><path d="M328.65015 886.84231l19.371756-15.558626 66.056958 82.247998-19.371756 15.557073z" fill="#4EB2A0" p-id="9827"></path><path d="M345.232758 126.323351l4.280837 24.473022-74.326509 12.999448-4.280837-24.473022z" fill="#4079CB" p-id="9828"></path><path d="M912.867014 277.254303l27.3958 2.585594-7.087076 75.122076-27.397354-2.585594zM767.893496 110.943417l30.477069-2.854409 7.034246 75.126738-30.47707 2.854409z" fill="#52B3DF" p-id="9829"></path><path d="M86.724619 548.368767L69.37752 523.149901l110.972334-76.326305 17.347099 25.22042z" fill="#4079CB" p-id="9830"></path><path d="M917.963618 616.967812l13.207663 13.207662-53.354295 53.354295-13.207663-13.207662zM809.01128 703.987662l5.26908 12.517756-69.542227 29.275949-5.269081-12.516202z" fill="#52B3DF" p-id="9831"></path><path d="M658.673896 261.063262a20.24657 20.24657 0 1 0 0-40.493139 20.24657 20.24657 0 1 0 0 40.493139M612.913231 225.806573a25.529635 25.529635 0 0 0 0-51.043731 25.529635 25.529635 0 1 0 0 51.043731M631.77688 291.969192a24.162253 24.162253 0 1 0 24.162253 24.162254 24.162253 24.162253 0 0 0-24.162253-24.162254M549.096913 193.175877a28.093475 28.093475 0 0 0 0-56.171411 28.093475 28.093475 0 0 0 0 56.171411M539.416474 281.263217a28.093475 28.093475 0 1 0 28.093475-28.093475 28.093475 28.093475 0 0 0-28.093475 28.093475M619.719061 436.973788a28.093475 28.093475 0 0 0 0-56.18695 28.093475 28.093475 0 0 0 0 56.18695M467.240483 174.762842a32.630696 32.630696 0 1 0 0.839075-65.121545 7.551675 7.551675 0 0 0-0.839075 0 32.630696 32.630696 0 0 0 0 65.121545M569.343483 385.992211a32.630696 32.630696 0 0 0-65.121545 0 32.630696 32.630696 0 1 0 65.121545 0M452.727592 257.567116a32.630696 32.630696 0 1 0 0-0.823536v0.823536M366.908863 174.762842a37.773915 37.773915 0 1 0 0-75.547829 37.773915 37.773915 0 0 0 0 75.547829M346.739986 251.848975a37.777022 37.777022 0 0 0 75.547829 0.901229v-0.901229a37.773915 37.773915 0 0 0-75.547829 0M437.593165 343.012923a37.777022 37.777022 0 0 0-0.88569 75.54783h0.88569a37.773915 37.773915 0 0 0 0-75.54783M249.857897 200.276938a43.507594 43.507594 0 0 0 43.507594-43.507594 43.507594 43.507594 0 0 0-43.507594-43.507594 43.561978 43.561978 0 1 0 0 87.123957M224.763338 272.561698a43.507594 43.507594 0 1 0 43.507594-43.507594 43.507594 43.507594 0 0 0-43.507594 43.507594M277.143374 401.934636a43.561978 43.561978 0 1 0 87.123957 0 43.561978 43.561978 0 0 0-87.123957 0M140.280914 379.466072a51.898344 51.898344 0 1 0-51.898344-51.898345 51.898344 51.898344 0 0 0 51.898344 51.898345M192.179258 403.255403a51.913883 51.913883 0 1 0 51.898344 51.898344 51.913883 51.913883 0 0 0-51.898344-51.898344M61.034939 491.824433a61.034939 61.034939 0 1 0 61.034939 61.034939 61.019401 61.019401 0 0 0-61.034939-61.034939" fill="#4079CB" p-id="9832"></path><path d="M295.74287 554.599676a20.199954 20.199954 0 1 0-7.567213 27.596245 20.199954 20.199954 0 0 0 7.567213-27.596245M252.996659 602.240491a25.529635 25.529635 0 0 0 24.239945 44.93713l1.009998-0.590461a25.529635 25.529635 0 0 0-25.249943-44.346669M368.897782 571.660868a24.15293 24.15293 0 0 0-23.167794-42.388827l-0.730306 0.419537a24.146715 24.146715 0 0 0 23.8981 41.953752M280.530751 721.684375a28.093475 28.093475 0 1 0-37.711761-10.333053 28.077937 28.077937 0 0 0 37.711761 10.333053M334.029553 637.683642a28.093475 28.093475 0 1 0 49.27235-27.005785l-0.435076-0.776921a28.093475 28.093475 0 0 0-48.837274 27.782706M429.590876 490.845512a28.093475 28.093475 0 1 0 38.317759 10.503977 28.077937 28.077937 0 0 0-38.317759-10.503977M315.554364 763.622588a32.630696 32.630696 0 1 0-12.182126 44.393285 32.630696 32.630696 0 0 0 12.182126-44.408823M480.789991 626.946589a32.630696 32.630696 0 1 0-43.600825-11.949049 32.630696 32.630696 0 0 0 43.600825 11.949049M394.629416 735.249422a32.630696 32.630696 0 1 0-44.424361-12.166588 32.630696 32.630696 0 0 0 44.424361 12.166588M365.215175 850.808699a37.777022 37.777022 0 0 0-66.084928 36.624071l0.435076 0.761383a37.773915 37.773915 0 0 0 65.634313-37.385454M442.177001 830.173669a37.777022 37.777022 0 0 0-36.872686-65.945082l-0.528306 0.29523a37.778576 37.778576 0 0 0 37.400992 65.649852M527.933576 720.223763a37.773915 37.773915 0 0 0-36.328841-66.240312l-1.056613 0.605999a37.773915 37.773915 0 0 0 37.385454 65.634313M385.912359 923.590688a43.565086 43.565086 0 1 0 43.134672 75.703214 43.565086 43.565086 0 0 0-43.134672-75.703214M477.418152 850.187162a43.555763 43.555763 0 1 0 43.072518 75.718752 43.571302 43.571302 0 0 0-43.134672-75.718752M607.039705 816.360008a43.571302 43.571302 0 1 0-43.134671-75.718752 43.571302 43.571302 0 0 0 43.134671 75.718752M584.47791 926.993604a51.898344 51.898344 0 1 0 70.777533 19.407494 51.913883 51.913883 0 0 0-70.777533-19.407494M669.659564 818.752925a51.898344 51.898344 0 1 0 70.777532 19.407495 51.898344 51.898344 0 0 0-70.777532-19.407495M814.928313 876.384949a61.019401 61.019401 0 1 0 83.23935 22.81041 61.003862 61.003862 0 0 0-83.23935-22.81041" fill="#4EB2A0" p-id="9833"></path><path d="M758.36844 717.178232a20.199954 20.199954 0 1 0 7.50506 27.627322 20.199954 20.199954 0 0 0-7.50506-27.627322M793.500823 737.316032a25.529635 25.529635 0 0 0 25.887018-44.004823l-0.559383-0.279692a25.518758 25.518758 0 0 0-25.374251 44.284515M708.319169 652.973454a24.162253 24.162253 0 1 0 8.872441 32.739464 24.162253 24.162253 0 0 0-8.872441-32.739464M854.566838 701.686421a28.093475 28.093475 0 1 0 28.746089-48.262353l-0.807998-0.466153a28.093475 28.093475 0 0 0-27.969167 48.728506M772.49287 611.14401a28.093475 28.093475 0 1 0 10.395207 38.379913 28.093475 28.093475 0 0 0-10.395207-38.333298M607.863242 641.75471a28.093475 28.093475 0 1 0 27.969168-48.728505 28.093475 28.093475 0 1 0-27.969168 48.728505M945.218018 589.436828a32.630696 32.630696 0 0 0-32.38208 56.497719 32.630696 32.630696 0 1 0 32.38208-56.497719M654.680521 540.584015a32.630696 32.630696 0 0 0 12.057819 44.4399 32.630696 32.630696 0 1 0-12.057819-44.4399M803.756184 604.213872a32.630696 32.630696 0 1 0 32.910387-56.202489l-0.512768-0.29523a32.630696 32.630696 0 0 0-32.397619 56.497719M1002.181889 500.44826a37.758376 37.758376 0 0 0-51.54096 13.984584 37.773915 37.773915 0 1 0 51.556499-13.984584M856.244988 524.14436a37.773915 37.773915 0 0 0 38.379914-65.07493l-0.807998-0.466153a37.773915 37.773915 0 0 0-37.571916 65.541083M717.98407 506.07317a37.742838 37.742838 0 0 0 51.540961-13.984584 37.773915 37.773915 0 1 0-51.556499 13.984584M1046.186713 384.049907a43.561978 43.561978 0 0 0-43.880516 75.268138 5.205373 5.205373 0 0 0 0.559383 0.326307 43.568194 43.568194 0 0 0 43.336672-75.594445M893.16429 418.079061a43.575963 43.575963 0 0 0 43.989285-75.23706l-0.652614-0.372923a43.574409 43.574409 0 0 0-43.336671 75.609983M814.337852 383.03991a43.56664 43.56664 0 1 0-75.159368-44.082516l-0.435076 0.761383a43.563532 43.563532 0 0 0 75.594444 43.321133M904.989032 286.85705a51.898344 51.898344 0 1 0-19.221033-70.855224 51.913883 51.913883 0 0 0 19.221033 70.839686M820.102609 178.383295a51.898344 51.898344 0 1 0 19.221033 70.824148 51.882806 51.882806 0 0 0-19.221033-70.824148M744.399395 113.992056a61.034939 61.034939 0 1 0-22.60841-83.301504 61.003862 61.003862 0 0 0 22.60841 83.301504" fill="#52B3DF" p-id="9834"></path><path d="M234.906823 269.977658l11.437836 25.029297-68.627014 31.36276-11.437836-25.029298z" fill="#4079CB" p-id="9835"></path></svg>