<?xml version="1.0" standalone="no"?><!DOCTYPE svg PUBLIC "-//W3C//DTD SVG 1.1//EN" "http://www.w3.org/Graphics/SVG/1.1/DTD/svg11.dtd"><svg t="1611808022242" class="icon" viewBox="0 0 1024 1024" version="1.1" xmlns="http://www.w3.org/2000/svg" p-id="6898" xmlns:xlink="http://www.w3.org/1999/xlink" width="200" height="200"><defs><style type="text/css"></style></defs><path d="M817.6 144.6v232.4l202-116.4-202-116z" fill="#56C0B7" p-id="6899"></path><path d="M1024 493v-232.4l-202 116.4 202 116z" fill="#5EE5DB" p-id="6900"></path><path d="M587.6 472.6v-232l-202 116 202 116z" fill="#3F887C" p-id="6901"></path><path d="M1024 725v-232l-202 116 202 116z" fill="#55C9C6" p-id="6902"></path><path d="M608.4 725v-232l-202 116 202 116z" fill="#3F8780" p-id="6903"></path><path d="M202 779.4v-232.4L0 663.4l202 116z" fill="#3C7F6F" p-id="6904"></path><path d="M817.6 377v232l202-116-202-116z" fill="#4FADA3" p-id="6905"></path><path d="M817.6 609v232l202-116-202-116z" fill="#5CD1D2" p-id="6906"></path><path d="M816.4 841v-232l-202 116 202 116z" fill="#469A98" p-id="6907"></path><path d="M572 937.4v-232.4l-202 116 202 116.4z" fill="#316160" p-id="6908"></path><path d="M610 493v232l201.6-116-201.6-116z" fill="#4FADA6" p-id="6909"></path><path d="M610 757.4v232.4l201.6-116.4-201.6-116z" fill="#469A9B" p-id="6910"></path><path d="M610 260.6v232.4l201.6-116-201.6-116.4z" fill="#53BCAD" p-id="6911"></path><path d="M204.4 485v232.4l202-116-202-116.4z" fill="#294F4B" p-id="6912"></path><path d="M356.8 344.6v232l202-116-202-116z" fill="#213C3B" p-id="6913"></path><path d="M96 250.6v232l202-116-202-116z" fill="#316356" p-id="6914"></path><path d="M338 660.6v232l202-116-202-116z" fill="#57C0B1" p-id="6915"></path><path d="M610 28.6v232l201.6-116-201.6-116z" fill="#5FD4BC" p-id="6916"></path><path d="M816.4 609v-232l-202 116 202 116z" fill="#62D3C8" p-id="6917"></path><path d="M353.6 569v-232l-201.6 116 201.6 116z" fill="#5BCBAD" p-id="6918"></path><path d="M608.4 260.6v-232l-202 116 202 116z" fill="#50AE9A" p-id="6919"></path><path d="M383.2 352.2v-223.2l-194.4 111.6 194.4 111.6z" fill="#418976" p-id="6920"></path><path d="M816.4 377v-232.4l-202 116 202 116.4z" fill="#60E2CF" p-id="6921"></path><path d="M385.6 225v232.4l202-116.4-202-116z" fill="#57C2A9" p-id="6922"></path></svg>